<?xml version="1.0" encoding="UTF-8" standalone="no"?>
<svg width="236px" height="30px" viewBox="0 0 236 30" version="1.1" xmlns="http://www.w3.org/2000/svg" xmlns:xlink="http://www.w3.org/1999/xlink">
    <!-- Generator: Sketch 3.8.2 (29753) - http://www.bohemiancoding.com/sketch -->
    <title>logo</title>
    <desc>Created with Sketch.</desc>
    <defs>
        <polygon id="path-1" points="8.7372202 0.221738392 0.125334534 0.221738392 0.125334534 8.80529741 8.7372202 8.80529741 8.7372202 0.221738392"></polygon>
        <polygon id="path-3" points="8.7372202 0.221738392 0.125334534 0.221738392 0.125334534 8.80529741 8.7372202 8.80529741 8.7372202 0.221738392"></polygon>
        <polygon id="path-5" points="0.291317032 8.80547304 0.291317032 18.0025229 18.1305063 18.0025229 18.1305063 0.221738392 0.291317032 0.221738392 0.291317032 8.80547304 8.90302649 8.80547304 8.90302649 0.221782301 0.29114082 0.221782301 0.29114082 8.80547304"></polygon>
        <polygon id="path-7" points="0.000308369736 8.7817185 8.61219404 8.7817185 8.61219404 0.198159478 0.000308369736 0.198159478 0.000308369736 8.7817185"></polygon>
        <polygon id="path-9" points="8.73730831 8.78136723 8.73730831 0.197676483 0.125510746 0.197676483 0.125510746 8.78136723 8.73730831 8.78136723"></polygon>
    </defs>
    <g id="Page-1" stroke="none" stroke-width="1" fill="none" fill-rule="evenodd">
        <g id="home-HD" transform="translate(-120.000000, -17.000000)">
            <g id="HEADER" transform="translate(120.000000, 1.000000)">
                <g id="logo" transform="translate(0.000000, 9.000000)">
                    <g id="Group-2">
                        <g id="Group" opacity="0.66120569" transform="translate(135.744997, 12.102306)">
                            <g id="Page-1">
                                <g id="Group-3" transform="translate(9.393198, 0.217304)">
                                    <mask id="mask-2" fill="white">
                                        <use xlink:href="#path-1"></use>
                                    </mask>
                                    <g id="Clip-2"></g>
                                    <path d="M8.7372202,8.80529741 L6.28215658,8.80529741 L6.28215658,7.16882417 L5.66673869,7.16882417 L5.66673869,8.80529741 L3.20374555,8.80529741 L3.20374555,7.16882417 L2.58832767,7.16882417 L2.58832767,8.80529741 L0.125334534,8.80529741 L0.125334534,6.35080709 L1.76718311,6.35080709 L1.76718311,5.73696497 L0.125334534,5.73696497 L0.125334534,3.28247465 L1.76718311,3.28247465 L1.76718311,2.66863252 L0.125334534,2.66863252 L0.125334534,0.221606666 C4.80330343,0.380994857 8.57730847,4.14264397 8.7372202,8.80529741" id="Fill-1" fill="#D1CFD1" mask="url(#mask-2)"></path>
                                </g>
                                <g id="Group-3" transform="translate(4.804877, 4.662321) rotate(-90.000000) translate(-4.804877, -4.662321) translate(0.304877, 0.162321)">
                                    <mask id="mask-4" fill="white">
                                        <use xlink:href="#path-3"></use>
                                    </mask>
                                    <g id="Clip-2"></g>
                                    <path d="M8.7372202,8.80529741 L6.28215658,8.80529741 L6.28215658,7.16882417 L5.66673869,7.16882417 L5.66673869,8.80529741 L3.20374555,8.80529741 L3.20374555,7.16882417 L2.58832767,7.16882417 L2.58832767,8.80529741 L0.125334534,8.80529741 L0.125334534,6.35080709 L1.76718311,6.35080709 L1.76718311,5.73696497 L0.125334534,5.73696497 L0.125334534,3.28247465 L1.76718311,3.28247465 L1.76718311,2.66863252 L0.125334534,2.66863252 L0.125334534,0.221606666 C4.80330343,0.380994857 8.57730847,4.14264397 8.7372202,8.80529741" id="Fill-1" fill="#D1CFD1" mask="url(#mask-4)"></path>
                                </g>
                                <g id="Group-6" transform="translate(0.000000, 0.217304)">
                                    <mask id="mask-6" fill="white">
                                        <use xlink:href="#path-5"></use>
                                    </mask>
                                    <g id="Clip-5"></g>
                                    <path d="M8.90302649,0.221782301 L8.90302649,2.66880816 L7.26117791,2.66880816 L7.26117791,3.2822112 L8.90302649,3.2822112 L8.90302649,5.7371406 L7.26117791,5.7371406 L7.26117791,6.35054364 L8.90302649,6.35054364 L8.90302649,8.80547304 L6.44047388,8.80547304 L6.44047388,7.1689998 L5.82461547,7.1689998 L5.82461547,8.80547304 L3.36206286,8.80547304 L3.36206286,7.1689998 L2.74620445,7.1689998 L2.74620445,8.80547304 L0.29114082,8.80547304 C0.451052555,4.14281961 4.22549812,0.381170491 8.90302649,0.221782301" id="Fill-4" fill="#D1CFD1" mask="url(#mask-6)"></path>
                                </g>
                                <g id="Group-9" transform="translate(0.291317, 9.438108)">
                                    <mask id="mask-8" fill="white">
                                        <use xlink:href="#path-7"></use>
                                    </mask>
                                    <g id="Clip-8"></g>
                                    <path d="M0.000308369736,0.198159478 L2.455372,0.198159478 L2.455372,1.83463272 L3.07078988,1.83463272 L3.07078988,0.198159478 L5.53378302,0.198159478 L5.53378302,1.83463272 L6.1492009,1.83463272 L6.1492009,0.198159478 L8.61219404,0.198159478 L8.61219404,2.6526498 L6.96990493,2.6526498 L6.96990493,3.26649192 L8.61175351,3.26649192 L8.61175351,5.72098224 L6.96990493,5.72098224 L6.96990493,6.33482436 L8.61175351,6.33482436 L8.61175351,8.78185022 C3.93422514,8.62246203 0.159779576,4.86037383 0.000308369736,0.198159478" id="Fill-7" fill="#D1CFD1" mask="url(#mask-8)"></path>
                                </g>
                                <g id="Group-12" transform="translate(9.393198, 9.438108)">
                                    <mask id="mask-10" fill="white">
                                        <use xlink:href="#path-9"></use>
                                    </mask>
                                    <g id="Clip-11"></g>
                                    <path d="M0.125510746,8.78136723 L0.125510746,6.33434137 L1.76735933,6.33434137 L1.76735933,5.72093833 L0.125510746,5.72093833 L0.125510746,3.26600893 L1.76735933,3.26600893 L1.76735933,2.65260589 L0.125510746,2.65260589 L0.125510746,0.197676483 L2.58806335,0.197676483 L2.58806335,1.83458881 L3.20392177,1.83458881 L3.20392177,0.197676483 L5.66647437,0.197676483 L5.66647437,1.83458881 L6.28233279,1.83458881 L6.28233279,0.197676483 L8.73739641,0.197676483 C8.57748468,4.86032992 4.80347964,8.62241812 0.125510746,8.78136723" id="Fill-10" fill="#D1CFD1" mask="url(#mask-10)"></path>
                                </g>
                            </g>
                        </g>
                        <text id="RightFit" font-family="AlfaSlabOne-Regular, Alfa Slab One" font-size="29.0585045" font-weight="normal" fill="#FFFFFF">
                            <tspan x="0" y="30">RightFit</tspan>
                        </text>
                        <text id="Gear" font-family="AlfaSlabOne-Regular, Alfa Slab One" font-size="29.0585045" font-weight="normal" fill="#FFFFFF">
                            <tspan x="161.97227" y="30">Gear</tspan>
                        </text>
                    </g>
                </g>
            </g>
        </g>
    </g>
</svg>